<?xml version="1.0" encoding="UTF-8"?>
<svg class="css-1j8o68f" viewBox="0 0 378.31 65.531" xmlns="http://www.w3.org/2000/svg">
<g transform="matrix(.91093 0 0 .91093 -2.915 14.526)" fill="#fff" featurekey="nameLeftFeature-0">
<path d="m26.28 34.08c0.36 0 1.12 0.16 1.12 1.4v3.16c0 1.24-0.76 1.4-1.12 1.4h-13.2c-1.76 0-3.28-0.24-4.48-0.68-1.28-0.44-2.32-1.2-3.12-2.24-0.8-1-1.36-2.32-1.72-3.92-0.36-1.56-0.56-3.48-0.56-5.72v-19.04c0-1.28 0.8-1.4 1.16-1.4h3.68c0.32 0 1.12 0.12 1.12 1.4v19.72c0 1.2 0.04 2.2 0.2 3 0.12 0.72 0.36 1.32 0.68 1.76 0.28 0.44 0.68 0.72 1.16 0.88 0.56 0.2 1.24 0.28 2.08 0.28h13zm34.689-1.24c0.36 0 1.16 0.12 1.16 1.36v4.4c0 1.24-0.8 1.36-1.16 1.36h-14.2c-1.76 0-3.24-0.2-4.48-0.68-1.28-0.44-2.32-1.16-3.12-2.2-0.76-1-1.36-2.32-1.72-3.92-0.28-1.32-0.48-2.92-0.52-4.8v-0.2l0.08-5.04c0.08-0.36 0.24-0.68 0.44-1 0.56-1 1.56-1.6 2.72-1.68l20.64-0.04c0.32 0 1.12 0.12 1.12 1.36v3.16c0 1.24-0.8 1.4-1.12 1.4h-17.88c-0.04 0-0.08 2.88-0.08 2.88l0.08 0.68c0.12 0.76 0.36 1.36 0.68 1.8 0.32 0.4 0.68 0.68 1.2 0.88 0.56 0.16 1.24 0.28 2.08 0.28h14.08zm0.04-25.88c0.32 0 1.12 0.16 1.12 1.4v3.16c0 1.24-0.8 1.4-1.12 1.4l-23-0.04c-0.32 0-1.08-0.12-1.08-1.36v-3.12c0-1.28 0.76-1.44 1.08-1.44h23zm38.289 0.08c0.36 0 1.16 0.12 1.16 1.36v3.12c0 1.32-0.8 1.44-1.16 1.44h-10.28v25.68c0 1.24-0.76 1.36-1.12 1.36h-3.68c-0.32 0-1.12-0.12-1.12-1.36v-25.68h-10.28c-0.36 0-1.16-0.12-1.16-1.44v-3.12c0-1.24 0.8-1.36 1.16-1.36h26.48zm14.849-6.52c0.88 0 1.56 0.68 1.56 1.56v2.6c0 0.2-0.04 0.4-0.08 0.56l-1.12 4.08c-0.08 0.4-0.44 0.68-0.88 0.68-0.52 0-0.92-0.4-0.92-0.92v-2.84h-1.16c-0.84 0-1.56-0.68-1.56-1.56v-2.6c0-0.88 0.72-1.56 1.56-1.56h2.6zm30.409 19.8c2.08 0 3.68 0.76 4.76 2.2 1.04 1.44 1.56 3.48 1.56 6.08v3.52c0 2.32-0.52 4.2-1.52 5.64-1.04 1.48-2.68 2.24-4.88 2.24h-18.04c-0.36 0-1.16-0.12-1.16-1.36v-3.2c0-1.24 0.8-1.36 1.16-1.36h17.08c0.68 0 0.92-0.28 1.08-0.52 0.24-0.4 0.36-0.96 0.36-1.68v-3.44c0-1.96-0.8-2.2-1.4-2.2h-12c-1.68 0-3.52-0.24-4.76-1.88-1-1.4-1.56-3.64-1.56-6.4v-3.04c0-2.32 0.52-4.24 1.56-5.68 1.04-1.48 2.64-2.2 4.84-2.2h17.24c0.32 0 1.12 0.12 1.12 1.36v3.2c0 1.24-0.8 1.36-1.12 1.36h-16.28c-0.68 0-0.92 0.28-1.08 0.52-0.2 0.4-0.32 0.96-0.32 1.68v2.96c0 1.96 0.76 2.2 1.36 2.2h12z"/>
</g>
<g transform="matrix(.73068 0 0 .73068 155 -.011669)" fill="#fff" featurekey="inlineSymbolFeature-0">
<title xmlns="http://www.w3.org/2000/svg">Controller</title>
<desc xmlns="http://www.w3.org/2000/svg">Created with Sketch.</desc>
<g fill="none" fill-rule="evenodd" xmlns="http://www.w3.org/2000/svg">
<g transform="translate(-780 -1276)" fill="#fff">
<g transform="translate(779 1276)">
<path d="m38.06 56.09c-1.4088 0.087261-2.8221-0.064894-4.18-0.45-1.5212-0.50793-2.4288-2.0663-2.12-3.64 0.36212-1.5275 1.3392-2.8374 2.7-3.62 1.4226-0.91318 3.0613-1.4341 4.75-1.51 2.39-0.1 4.32 2.52 3.91 4.87-0.57857 2.3855-2.6147 4.1359-5.06 4.35zm0.18-6.56c-0.16-0.16-0.42-0.09-0.62 0-0.42183 0.20497-0.80432 0.48254-1.13 0.82-0.48668 0.43184-0.73288 1.0734-0.66 1.72 0.19851 0.52354 0.6533 0.90745 1.2027 1.0153 0.54942 0.10785 1.1156-0.075657 1.4973-0.4853 0.67769-0.95374 0.55429-2.26-0.29-3.07z"/>
<path d="m28 23.69c-2.09 4.57-6.84 7.64-8.42 12.42-0.29021 0.71385-0.34966 1.5006-0.17 2.25 0.20989 0.76623 0.9388 1.2718 1.73 1.2l6.55-1.25c2.678-0.65184 5.4403-0.88793 8.19-0.7 1.4986 0.20698 2.9683 0.58615 4.38 1.13 10.327 3.8422 18.427 12.052 22.13 22.43 1.1942 3.0534 1.6067 6.3567 1.2 9.61-0.44439 3.29-2.4473 6.1641-5.38 7.72-3.84 1.8-8.58 0.29-11.74-2.55s-5.06-6.77-6.9-10.6l-9.47 3.47c-1.11 0.41-2.42 1.09-2.4 2.27 0.14838 3.2921-0.37913 6.5796-1.55 9.66-1.1953 3.0983-3.5169 5.6307-6.5 7.09-4.277 1.8085-9.2303 0.70867-12.34-2.74-0.77304-0.92484-1.4436-1.9307-2-3-3.83-7.03-5.42-15.49-3.49-23.31s7.61-14.79 15.18-17.52c-1.86-1.71-1.79-4.77-0.68-7s3-4 4.63-6c3.38-4.14 5.45-9.52 4.87-14.83s-4.06-10.44-9.12-12.16c-0.28-0.51 0.23-1.16 0.81-1.26 0.58583-0.031513 1.1667 0.12245 1.66 0.44 3.75 1.91 7.76 4.11 9.46 8 0.88357 2.3846 1.2019 4.9416 0.93 7.47-0.025832 2.6619-0.55514 5.2949-1.56 7.76zm-3.84 44.84c0.64075-0.67625 1.4476-1.1727 2.34-1.44l13.84-5.47c1.07-0.42 2.64-0.64 3 0.44 1.506 4.1197 3.7267 7.9415 6.56 11.29 1.05 1.25 2.32 2.5 3.94 2.74 2.14 0.32 4.19-1.35 5-3.36 0.64296-2.0759 0.68457-4.2914 0.12-6.39-1.65-8.4178-6.4634-15.883-13.45-20.86-7.0644-4.9181-15.97-6.3876-24.24-4-8.2559 2.556-14.596 9.2102-16.75 17.58-0.57109 2.6057-0.79304 5.2758-0.66 7.94 0.14 4.78 1.19 9.65 3.79 13.66 1.1918 1.988 2.9264 3.5943 5 4.63 2.1205 1.0128 4.606 0.90407 6.63-0.29 1.2252-0.86863 2.1955-2.0495 2.81-3.42 1.2913-2.6041 1.8348-5.5154 1.57-8.41-0.15-1.56-0.49-3.37 0.5-4.64z"/>
<path d="m14.08 63.32c-1.68 0.16-3.64-0.22-4.47-1.69s-0.11-3.49 1-4.84c1.48-1.75 3.87-3 6.06-2.33 1.1053 0.39568 2.0044 1.2204 2.4938 2.2876 0.48936 1.0672 0.52766 2.2866 0.10622 3.3824-0.85 2-3.09 3-5.21 3.19h0.02zm-0.77-5.44c-0.37734 0.47406-0.55332 1.0774-0.49 1.68 0.085468 0.61773 0.61641 1.0759 1.24 1.07 0.82-0.08 1.17-1.07 1.32-1.88 0.17413-0.48239 0.10329-1.0193-0.19-1.44-0.51-0.53-1.43-0.04-1.86 0.57h-0.02z"/>
<path d="m17.38 49.32c-0.44-0.74 0.09-1.68 0.7-2.29 1.64-1.62 3.91-2.39 6.1-3.11 1.15-0.38 2.49-0.74 3.51-0.08 1.22 0.8 1.19 2.73 0.28 3.87-1.0136 1.0633-2.3627 1.7449-3.82 1.93-1.5981 0.33063-3.2286 0.47825-4.86 0.44-0.727 0.085065-1.4482-0.2004-1.92-0.76h0.01zm7.39-3.17c-1.1243-0.35907-2.3533 0.019998-3.08 0.95 1.124 0.38786 2.3698 0.0036159 3.08-0.95z"/>
</g>
</g>
</g>
</g>
<g transform="matrix(1.0883 0 0 1.0883 191.74 7.4256)" fill="#fff" featurekey="nameRightFeature-0">
<path d="m60.289 7.04c1.32 0 2.24 0.44 2.72 1.28 0.44 0.76 0.64 2.04 0.64 3.88v26.44c0 1.24-0.8 1.4-1.16 1.4h-3.44c-0.32 0-1.12-0.16-1.12-1.4v-24.12h-0.2c-0.04 0-0.08 0-0.08 0.08l-6.88 16.96c-0.28 0.84-0.56 1.56-0.84 2.16s-0.64 1.08-0.96 1.48c-0.36 0.4-0.8 0.72-1.28 0.88-0.44 0.16-1 0.24-1.6 0.24h-1.64c-0.6 0-1.12-0.08-1.6-0.24s-0.88-0.48-1.28-0.88c-0.32-0.4-0.64-0.88-0.96-1.48-0.28-0.6-0.56-1.32-0.84-2.16l-6.84-16.92c-0.04-0.12-0.08-0.12-0.12-0.12h-0.2v24.12c0 1.24-0.76 1.4-1.12 1.4h-3.44c-0.36 0-1.16-0.16-1.16-1.4v-26.44c0-1.84 0.2-3.12 0.64-3.88 0.48-0.84 1.4-1.28 2.76-1.28h3.68c0.52 0 1 0.04 1.4 0.16s0.8 0.32 1.12 0.6c0.28 0.32 0.56 0.68 0.8 1.16 0.2 0.48 0.44 1.08 0.68 1.84l7.04 17.68c0.04 0.16 0.12 0.16 0.12 0.16h0.4c0.04 0 0.08 0 0.12-0.16l7.08-17.68c0.24-0.76 0.44-1.36 0.68-1.84s0.52-0.84 0.8-1.16c0.32-0.28 0.68-0.48 1.08-0.6s0.84-0.16 1.4-0.16h3.6zm36.929 25.8c0.36 0 1.16 0.12 1.16 1.36v4.4c0 1.24-0.8 1.36-1.16 1.36h-14.2c-1.76 0-3.24-0.2-4.48-0.68-1.28-0.44-2.32-1.16-3.12-2.2-0.76-1-1.36-2.32-1.72-3.92-0.28-1.32-0.48-2.92-0.52-4.8v-0.2l0.08-5.04c0.08-0.36 0.24-0.68 0.44-1 0.56-1 1.56-1.6 2.72-1.68l20.64-0.04c0.32 0 1.12 0.12 1.12 1.36v3.16c0 1.24-0.8 1.4-1.12 1.4h-17.88c-0.04 0-0.08 2.88-0.08 2.88l0.08 0.68c0.12 0.76 0.36 1.36 0.68 1.8 0.32 0.4 0.68 0.68 1.2 0.88 0.56 0.16 1.24 0.28 2.08 0.28h14.08zm0.04-25.88c0.32 0 1.12 0.16 1.12 1.4v3.16c0 1.24-0.8 1.4-1.12 1.4l-23-0.04c-0.32 0-1.08-0.12-1.08-1.36v-3.12c0-1.28 0.76-1.44 1.08-1.44h23zm34.689 25.88c0.36 0 1.16 0.12 1.16 1.36v4.4c0 1.24-0.8 1.36-1.16 1.36h-14.2c-1.76 0-3.24-0.2-4.48-0.68-1.28-0.44-2.32-1.16-3.12-2.2-0.76-1-1.36-2.32-1.72-3.92-0.28-1.32-0.48-2.92-0.52-4.8v-0.2l0.08-5.04c0.08-0.36 0.24-0.68 0.44-1 0.56-1 1.56-1.6 2.72-1.68l20.64-0.04c0.32 0 1.12 0.12 1.12 1.36v3.16c0 1.24-0.8 1.4-1.12 1.4h-17.88c-0.04 0-0.08 2.88-0.08 2.88l0.08 0.68c0.12 0.76 0.36 1.36 0.68 1.8 0.32 0.4 0.68 0.68 1.2 0.88 0.56 0.16 1.24 0.28 2.08 0.28h14.08zm0.04-25.88c0.32 0 1.12 0.16 1.12 1.4v3.16c0 1.24-0.8 1.4-1.12 1.4l-23-0.04c-0.32 0-1.08-0.12-1.08-1.36v-3.12c0-1.28 0.76-1.44 1.08-1.44h23zm38.289 0.08c0.36 0 1.16 0.12 1.16 1.36v3.12c0 1.32-0.8 1.44-1.16 1.44h-10.28v25.68c0 1.24-0.76 1.36-1.12 1.36h-3.68c-0.32 0-1.12-0.12-1.12-1.36v-25.68h-10.28c-0.36 0-1.16-0.12-1.16-1.44v-3.12c0-1.24 0.8-1.36 1.16-1.36h26.48z"/>
</g>
</svg>
